<svg xmlns="http://www.w3.org/2000/svg" xmlns:xlink="http://www.w3.org/1999/xlink" version="1.1" x="0px" y="0px" viewBox="0 0 100 125" enable-background="new 0 0 100 100" xml:space="preserve"><path d="M79.06,35.011c-0.319-0.825-1.534-2.612-2.895-3.005c-0.057-0.017-2.884-0.943-3.769-0.997  c-1.804-0.109-5.723,2.154-6.271,3.066c-0.081,0.135-0.233,0.387-0.667,1.937c-1.34-0.22-6.626-1.362-7.526-1.362  c-0.806,0-2.697,0.234-2.979,0.236c-1.465-0.608-10.324-3.619-13.106-4.562c-0.446-0.15-0.933-0.086-1.321,0.178  c-0.388,0.262-0.632,0.69-0.658,1.158l-0.006,0.104l-1.603-0.706c-0.57-1.066-1.197-2.204-1.304-2.574  c-0.322-1.112-2.023-10.761-2.027-10.808c0.555-0.323,1.337-1.414,1.593-1.781c0.625-0.896-0.797-4.653-1.084-5.215  c-0.447-0.882-3.07-3.289-4.474-3.797c-0.376-0.136-3.858-0.272-4.171-0.26c-0.641-0.203-3.045-0.808-3.228-0.808  c-1.055,0-2.748,0.585-3.205,1.888c-0.258,0.738-0.264,3.024,0.063,3.81c0.137,0.328,0.32,0.77,2.509,2.153l0.743,2.414  l-0.284,0.812c-0.089,0.254-0.107,0.527-0.055,0.79c1.014,5.046,2.969,14.823,3.118,15.712c0.194,1.163,7.438,18.363,7.438,18.363  l-1.523,18.039c-0.001,0.057,1.217,14.397,1.217,14.397c0.063,0.738,0.655,1.32,1.395,1.37l1.645,0.109  c0.906,2.201-0.962,4.871-0.094,5.701c0.75,0.718,1.419,0.79,2.168,0.79c0.49,0,3.195,0.253,3.491,0.285  c0.392,0.043,4.227,1.733,6.186,1.733c1.771,0,2.668-0.861,2.832-1.55c0.006-0.026,0.583-2.607-0.408-3.641  c-0.724-0.753-4.221-0.071-6.02-3.938c0.172-0.097,0.326-0.229,0.45-0.388c0.253-0.326,0.361-0.741,0.298-1.149l-2.493-16.126  l1.382-1.997c0.13-0.188,0.216-0.403,0.25-0.63l0.653-4.335l1.148-1.757c0.008,0.438,0.055,0.897,0.165,1.35  c0,0,0.785,3.189,0.73,4.39c-0.062,1.373-0.356,4.218-0.359,4.246c-0.015,0.146,0.035,0.291,0.136,0.397  c0.094,0.099,0.225,0.154,0.361,0.154c0.01,0,0.02,0,0.029-0.001l3.296-0.191c0.252-0.015,0.453-0.214,0.47-0.466  c0.051-0.764,0.289-4.618-0.031-5.464c-0.131-0.347-2.406-3.651-1.755-5.054l3.679-0.671c0.454,0.718,1.212,1.429,2.421,1.882  c2.165,0.812,10.117,1.598,11.017,1.685c0.406,0.041,0.818-0.091,1.128-0.361c0.311-0.271,0.497-0.656,0.514-1.067l0.085-1.993  l0.526-0.202c0.558-0.213,0.936-0.736,0.962-1.333l0.407-9c1.372,2.046,2.124,2.839,2.879,2.778h0  c1.416-0.001,2.606-3.747,2.704-3.979c0.525-0.425,2.709-1.513,3.173-2.455C80.453,40.377,79.674,36.598,79.06,35.011z   M68.01,38.077c0.219-0.842,0.359-1.924,0.656-2.326c0.601-0.813,3.045-1.737,3.69-1.744c0.885,0.757,2.234,2.051,2.443,2.629  c0.189,0.525-0.094,1.887-0.38,2.631c-0.087,0.229-0.565,0.874-0.877,1.261c-0.084,0.104-0.106,0.246-0.058,0.371  c0.049,0.126,0.545,0.295,0.629,0.338c-0.248,0.452-0.965,1.128-1.149,1.128c-0.002,0-0.004,0-0.005-0.001  c-0.087-0.05-0.306-0.34-0.459-0.608c-0.101-0.177-0.326-0.241-0.504-0.145l-2.342,1.268l-1.972-0.813  c-0.002-0.117-0.323-2.335-0.332-2.389C67.316,39.49,67.18,39.339,67,39.285l-0.376-0.112C67.269,39.141,67.843,38.723,68.01,38.077  z M64.182,44.546c-0.005-0.02-0.003-0.04-0.011-0.059c0,0-1.452-1.519-1.414-2.426c0.006-0.142,0.208-0.527,0.208-0.527l0.725,0.356  c0,0,0.594,0.774,0.714,0.774c0.073,0,1.228-0.762,1.228-0.762c0.171-0.117,0.214-0.351,0.098-0.521  c-0.117-0.171-0.35-0.214-0.521-0.098l-0.683,0.468l-0.204-0.27c0.039-0.021,0.078-0.045,0.108-0.081l1.248-1.466  c0,0,0.61,0.077,0.738,0.221c0.286,0.323,0.238,1.2,0.251,1.662c0.014,0.498,0.056,2.562,0.056,2.562L64.182,44.546z M63.859,40.913  c-0.046,0.055-0.068,0.119-0.078,0.185l-0.454-0.223l0.944-1.364l0.623,0.187L63.859,40.913z M62.844,39.084l0.671,0.201  l-0.838,1.21c-0.203-0.128-0.41-0.265-0.55-0.373C62.249,39.891,62.529,39.485,62.844,39.084z M68.43,44.266l-0.709,0.047  c0,0-0.1-1.351-0.086-1.455l1.503,0.62L68.43,44.266z M56.196,37.785c2.023-0.316,5.05,0.487,5.885,0.658  c-0.356,0.446-0.6,0.798-0.756,1.072c0,0-3.848,0.762-5.147,0.886c-1.95,0.187-7.833,0.165-7.833,0.165l-0.341-0.796  c-0.094-0.221-0.331-0.342-0.566-0.292l-1.849,0.405l-2.896-1.163l0.318-4.834c4.512,1.536,10.172,3.486,10.755,3.75  C54.37,37.941,55.172,37.945,56.196,37.785z M47.661,54.471c-0.469-1.237-1.435-3.742-1.927-4.718  c-0.421-0.836-1.844-2.396-2.618-3.215l2.355-1.088l2.272,6.802L47.661,54.471z M48.639,55.084l0.408-11.134l1.372-0.154  l-0.954,11.237L48.639,55.084z M50.69,41.797c-0.139,0.093-0.222,0.249-0.222,0.416v0.57l-1.291,0.146  c-0.948-0.941-1.348-0.754-1.503-0.685c-0.2,0.093-1.077,0.449-1.531,0.634l-2.635-2.171l-3.399-1.858  c-0.001-0.025-0.004-0.062-0.005-0.089l5.412,2.271c0.093,0.038,1.731-0.486,1.731-0.486l0.305,0.712  c0.077,0.181,0.253,0.3,0.449,0.304l2.95,0.062L50.69,41.797z M41.911,35.339l-0.196,2.991l-1.745-0.701  c-0.089-0.412-0.229-0.815-0.464-1.08c-0.429-0.483-1.968-2.529-1.968-2.529L41.911,35.339z M26.358,17.495l0.311-0.889  c0.105-0.302,0.112-0.63,0.018-0.937l-1.053-3.421c-0.002-0.006-0.007-0.011-0.009-0.018c0.581,0.132,1.042,0.265,1.193,0.366  c0.117,0.098,1.147,2.031,1.466,2.221c0.015,0.009,0.567,0.319,1.359,0.625l0.568,2.331C29.787,17.872,26.604,17.792,26.358,17.495z   M31.172,17.491l-0.412-1.69c0.446,0.117,0.913,0.197,1.38,0.221c-0.11,0.243-0.205,0.609-0.221,1.154  C31.744,17.263,31.49,17.376,31.172,17.491z M23.174,8.911c0.513-0.442,2.136,0.387,2.958,0.652c0.176,0.058,3.803,0.14,3.812,0.143  c0.615,0.222,2.502,1.891,2.818,2.333c0.153,0.3,1.159,2.023,0.758,2.588c-0.934,1.312-4.196-0.354-4.713-0.66  c-0.125-0.101-1.136-2.002-1.425-2.194c-0.533-0.357-2.259-0.487-3.128-0.826c-0.461-0.18-0.811-0.544-1.054-0.731  C23.169,9.837,23.16,9.246,23.174,8.911z M48.203,90.391c0.041,0.06,0.531,0.578,0.163,0.793c-0.784,0.458-2.448-0.485-3-0.732  c-1.389-0.62-2.161-0.719-2.991-0.811c-0.151-0.017-2.696-0.053-2.903-0.401c-0.347-0.583,0.253-1.667,0.284-1.996  c0.093-1.009-0.437-3.601-0.545-3.773l1.467-0.045c0,0,2.613,4.72,3.34,5.403C44.702,89.473,48.038,90.149,48.203,90.391z   M44.671,55.938l-2.042,3.126c-0.118,0.181-0.877,4.911-0.877,4.911l-1.525,2.202c-0.218,0.315,2.087,16.198,2.087,16.198  l-5.858,0.179l-1.087-12.76l1.535-18.019c0.019-0.187,0.002-0.376-0.048-0.557c0,0-7.217-17.439-7.443-18.317  c-0.156-0.939-2.038-10.34-2.811-14.192c0.602,0.138,3.773,0.374,5.375-0.459c0.001,0.008,0.001,0.014,0.002,0.022  c0.789,4.175,3.388,14.982,4.271,16.311c0.005,0.007,2.054,2.119,2.508,2.63c0.258,0.291,0.363,1.32,0.352,1.925  c-0.003,0.186,0.097,0.358,0.26,0.447l3.579,1.945l2.787,2.308c0.091,0.076,0.204,0.115,0.319,0.115c0.063,0,1.974-0.691,2.015-0.66  l-0.224,6.115l-1.604-4.804c-0.045-0.135-0.145-0.244-0.276-0.301c-0.13-0.056-0.278-0.053-0.408,0.005l-3.499,1.616  c-0.148,0.068-0.253,0.204-0.282,0.363c-0.029,0.16,0.021,0.324,0.134,0.44c0.675,0.69,2.519,2.659,2.93,3.476  c0.521,1.033,1.651,4.002,2.024,4.993l-1.032,0.065C45.361,55.291,44.93,55.541,44.671,55.938z M48.64,59.843  c0.242,0.767,1.581,3.311,1.689,3.6c0.151,0.4,0.118,2.575-0.003,4.604l-2.269,0.132c0.091-0.918,0.258-2.69,0.305-3.72  c0.061-1.344-1.034-4.739-0.883-6.295l1.022-0.065C48.463,58.704,48.482,59.341,48.64,59.843z M50.985,54.937  c-0.124,0.034-0.512,0.032-0.512,0.032l0.995-12.489l1.385-0.926l3.432-0.159l4.869-0.834c0.018,0.024,0.036,0.048,0.054,0.07  c0.161,0.193,0.51,0.44,0.794,0.624l-0.229,0.58c-0.035,0.088-0.031,0.183-0.026,0.278c0.05,0.919,0.846,1.699,1.205,2.182  l0.191,0.32l-0.467,0.031c-0.247,0.017-0.445,0.211-0.465,0.457l-0.475,5.704c-0.005,0.001-0.009-0.002-0.014-0.001l-3.318,0.415  C58.343,51.229,52.944,54.404,50.985,54.937z M66.891,54.856l-0.528,0.203c-0.559,0.214-0.937,0.738-0.962,1.336l-0.06,1.388  c-3.248-0.352-7.525-0.914-8.678-1.346c-0.958-0.359-1.766-2.213-1.803-2.235l3.759-2.002l3.031-0.379l-0.002,0.021l-3.11,2.074  c-0.23,0.153-0.292,0.464-0.139,0.693c0.096,0.145,0.255,0.223,0.417,0.223c0.095,0,0.191-0.027,0.277-0.084l2.526-1.684  l0.539,2.246c0.171,0.316,0.287,0.441,0.603,0.37c0.269-0.064,0.434-0.335,0.37-0.603l-0.556-2.314l0.596-7.148l4.365-0.288  C67.4,45.545,66.891,54.856,66.891,54.856z M76.32,41.991c-0.056,0.053-0.296,0.172-0.471,0.26  c-0.524,0.261-1.241,0.617-2.121,1.372c-0.425,0.364-0.649,0.879-0.937,1.748c-0.386-0.573-1.571-2.231-1.83-2.348l1.078-0.584  c0.271,0.403,0.528,0.622,0.765,0.653c0.817,0.095,1.822-1.164,2.028-1.622c0.086-0.191,0.081-0.393-0.014-0.566  c-0.081-0.148-0.217-0.256-0.363-0.332c0.251-0.334,0.561-0.773,0.661-1.035c0.256-0.667,0.688-2.315,0.385-3.154  c-0.19-0.529-0.895-1.296-1.553-1.935c0.275,0.086,1.455,0.084,2.311,1.646C76.982,37.406,77.176,40.243,76.32,41.991z"/><text x="0" y="115" fill="#000000" font-size="5px" font-weight="bold" font-family="'Helvetica Neue', Helvetica, Arial-Unicode, Arial, Sans-serif">Created by H Alberto Gongora</text><text x="0" y="120" fill="#000000" font-size="5px" font-weight="bold" font-family="'Helvetica Neue', Helvetica, Arial-Unicode, Arial, Sans-serif">from the Noun Project</text></svg>